<?xml version="1.0" standalone="no"?>
<!DOCTYPE svg PUBLIC "-//W3C//DTD SVG 20010904//EN"
 "http://www.w3.org/TR/2001/REC-SVG-20010904/DTD/svg10.dtd">
<svg version="1.0" xmlns="http://www.w3.org/2000/svg"
 width="453.000000pt" height="453.000000pt" viewBox="0 0 453.000000 453.000000"
 preserveAspectRatio="xMidYMid meet">
<metadata>
Created by potrace 1.14, written by Peter Selinger 2001-2017
</metadata>
<g transform="translate(0.000000,453.000000) scale(0.100000,-0.100000)"
fill="#000000" stroke="none">
<path d="M2172 4243 c-51 -32 -106 -65 -121 -75 -16 -9 -95 -58 -177 -108 -82
-51 -205 -128 -274 -170 -69 -43 -171 -106 -228 -141 -56 -35 -165 -102 -241
-149 -370 -226 -480 -296 -481 -301 0 -4 276 -177 613 -385 336 -208 635 -392
662 -410 28 -17 115 -72 195 -121 l145 -89 150 93 c83 50 159 98 170 105 11 8
100 63 198 124 98 60 190 117 205 126 15 10 39 24 54 32 14 9 95 58 180 111
84 52 160 99 168 104 158 95 490 305 490 309 0 4 -26 22 -58 41 -31 19 -149
92 -262 161 -309 192 -1293 800 -1294 800 -1 0 -43 -26 -94 -57z"/>
<path d="M630 2249 l0 -991 23 -19 c12 -10 25 -18 28 -19 4 0 79 -45 168 -100
88 -55 163 -100 166 -100 3 0 5 94 5 210 l0 209 78 -48 c42 -26 229 -141 415
-256 l337 -208 0 -212 0 -213 93 -58 c50 -31 138 -86 195 -121 l102 -63 0 995
0 994 -54 35 c-30 19 -202 125 -382 237 -181 111 -351 217 -379 234 -27 18
-151 94 -275 170 -124 76 -261 161 -305 188 -44 28 -96 59 -115 70 -19 12 -46
29 -59 39 -13 10 -28 18 -32 18 -5 0 -9 -440 -9 -991z"/>
<path d="M3725 3140 c-88 -55 -164 -103 -170 -107 -5 -5 -55 -35 -109 -68 -55
-33 -121 -73 -147 -90 -51 -31 -134 -83 -664 -410 -176 -108 -326 -203 -333
-209 -9 -9 -12 -218 -10 -1002 l3 -991 190 117 190 117 5 217 5 218 95 59 c52
32 105 64 118 71 24 14 525 324 580 359 l32 21 0 -211 c0 -116 2 -211 5 -211
3 0 30 15 59 32 28 18 61 38 72 45 10 6 71 44 135 84 l117 72 1 994 c1 546 -2
993 -6 992 -5 0 -80 -45 -168 -99z"/>
</g>
</svg>
